<svg xmlns="http://www.w3.org/2000/svg" viewBox="0 0 512 512">
  <defs>
    <linearGradient id="background" x1="64" y1="32" x2="448" y2="480" gradientUnits="userSpaceOnUse">
      <stop stop-color="#0b2830" />
      <stop offset="1" stop-color="#050b0f" />
    </linearGradient>
    <linearGradient id="flame" x1="176" y1="126" x2="340" y2="386" gradientUnits="userSpaceOnUse">
      <stop stop-color="#50fff1" />
      <stop offset="1" stop-color="#19bfe8" />
    </linearGradient>
    <filter id="glow" x="80" y="52" width="352" height="404" filterUnits="userSpaceOnUse">
      <feGaussianBlur stdDeviation="26" />
    </filter>
  </defs>
  <rect width="512" height="512" fill="url(#background)" />
  <circle cx="256" cy="256" r="168" fill="#19f7e8" fill-opacity=".08" />
  <path d="M267 109c11 63-17 103-53 139-28 28-51 55-51 97 0 55 42 94 96 94 55 0 96-39 96-94 0-39-19-72-52-104 2 31-10 54-35 70-10-58 17-104-1-202Z" fill="#19f7e8" fill-opacity=".45" filter="url(#glow)" />
  <path d="M267 109c11 63-17 103-53 139-28 28-51 55-51 97 0 55 42 94 96 94 55 0 96-39 96-94 0-39-19-72-52-104 2 31-10 54-35 70-10-58 17-104-1-202Z" fill="url(#flame)" />
  <path d="M256 386c-29 0-51-20-51-49 0-23 14-39 29-55 13-14 27-30 29-53 23 25 39 53 39 84 0 43-20 73-46 73Z" fill="#d9fffb" fill-opacity=".72" />
</svg>
